<mxfile host="app.diagrams.net" agent="Mozilla/5.0 (X11; Ubuntu; Linux x86_64; rv:138.0) Gecko/20100101 Firefox/138.0" version="27.0.6">
  <diagram name="Page-1" id="wuYVK2IzKCUMEVN-G0l1">
    <mxGraphModel dx="1426" dy="790" grid="1" gridSize="10" guides="1" tooltips="1" connect="1" arrows="1" fold="1" page="1" pageScale="1" pageWidth="850" pageHeight="1100" math="0" shadow="0">
      <root>
        <mxCell id="0" />
        <mxCell id="1" parent="0" />
        <mxCell id="_rhodisF1wV4W3reyhHq-13" value="" style="rounded=0;whiteSpace=wrap;html=1;fillColor=#d5e8d4;strokeColor=#82b366;" vertex="1" parent="1">
          <mxGeometry x="645" y="160" width="120" height="400" as="geometry" />
        </mxCell>
        <mxCell id="_rhodisF1wV4W3reyhHq-1" value="" style="rounded=0;whiteSpace=wrap;html=1;fillColor=#ffe6cc;strokeColor=#d79b00;" vertex="1" parent="1">
          <mxGeometry x="80" y="120" width="120" height="160" as="geometry" />
        </mxCell>
        <mxCell id="_rhodisF1wV4W3reyhHq-2" value="PT entries for mapped region" style="rounded=0;whiteSpace=wrap;html=1;fillColor=#dae8fc;strokeColor=#6c8ebf;" vertex="1" parent="1">
          <mxGeometry x="80" y="160" width="120" height="80" as="geometry" />
        </mxCell>
        <mxCell id="_rhodisF1wV4W3reyhHq-3" value="&lt;b&gt;Process A page table&lt;/b&gt;" style="text;html=1;align=center;verticalAlign=middle;whiteSpace=wrap;rounded=0;" vertex="1" parent="1">
          <mxGeometry x="75" y="80" width="130" height="30" as="geometry" />
        </mxCell>
        <mxCell id="_rhodisF1wV4W3reyhHq-4" value="" style="rounded=0;whiteSpace=wrap;html=1;fillColor=#f8cecc;strokeColor=#b85450;" vertex="1" parent="1">
          <mxGeometry x="80" y="440" width="120" height="160" as="geometry" />
        </mxCell>
        <mxCell id="_rhodisF1wV4W3reyhHq-5" value="PT entries for mapped region" style="rounded=0;whiteSpace=wrap;html=1;fillColor=#fff2cc;strokeColor=#d6b656;" vertex="1" parent="1">
          <mxGeometry x="80" y="480" width="120" height="80" as="geometry" />
        </mxCell>
        <mxCell id="_rhodisF1wV4W3reyhHq-6" value="&lt;b&gt;Process B page table&lt;/b&gt;" style="text;html=1;align=center;verticalAlign=middle;whiteSpace=wrap;rounded=0;" vertex="1" parent="1">
          <mxGeometry x="75" y="400" width="130" height="30" as="geometry" />
        </mxCell>
        <mxCell id="_rhodisF1wV4W3reyhHq-7" value="" style="rounded=0;whiteSpace=wrap;html=1;fillColor=#e1d5e7;strokeColor=#9673a6;" vertex="1" parent="1">
          <mxGeometry x="360" y="120" width="120" height="480" as="geometry" />
        </mxCell>
        <mxCell id="_rhodisF1wV4W3reyhHq-8" value="Mapped pages" style="rounded=0;whiteSpace=wrap;html=1;fillColor=#bac8d3;strokeColor=#23445d;" vertex="1" parent="1">
          <mxGeometry x="360" y="240" width="120" height="240" as="geometry" />
        </mxCell>
        <mxCell id="_rhodisF1wV4W3reyhHq-9" value="&lt;b&gt;Physical memory&lt;/b&gt;" style="text;html=1;align=center;verticalAlign=middle;whiteSpace=wrap;rounded=0;" vertex="1" parent="1">
          <mxGeometry x="355" y="80" width="130" height="30" as="geometry" />
        </mxCell>
        <mxCell id="_rhodisF1wV4W3reyhHq-11" value="Mapped region of file" style="rounded=0;whiteSpace=wrap;html=1;fillColor=#b0e3e6;strokeColor=#0e8088;" vertex="1" parent="1">
          <mxGeometry x="645" y="240" width="120" height="240" as="geometry" />
        </mxCell>
        <mxCell id="_rhodisF1wV4W3reyhHq-12" value="&lt;b&gt;Open file&lt;/b&gt;" style="text;html=1;align=center;verticalAlign=middle;whiteSpace=wrap;rounded=0;" vertex="1" parent="1">
          <mxGeometry x="640" y="120" width="130" height="30" as="geometry" />
        </mxCell>
        <mxCell id="_rhodisF1wV4W3reyhHq-14" value="" style="endArrow=classic;html=1;rounded=0;exitX=1;exitY=0;exitDx=0;exitDy=0;entryX=0;entryY=0;entryDx=0;entryDy=0;" edge="1" parent="1" source="_rhodisF1wV4W3reyhHq-2" target="_rhodisF1wV4W3reyhHq-8">
          <mxGeometry width="50" height="50" relative="1" as="geometry">
            <mxPoint x="400" y="420" as="sourcePoint" />
            <mxPoint x="450" y="370" as="targetPoint" />
          </mxGeometry>
        </mxCell>
        <mxCell id="_rhodisF1wV4W3reyhHq-15" value="" style="endArrow=classic;html=1;rounded=0;exitX=1;exitY=0.75;exitDx=0;exitDy=0;entryX=0;entryY=1;entryDx=0;entryDy=0;" edge="1" parent="1" source="_rhodisF1wV4W3reyhHq-1" target="_rhodisF1wV4W3reyhHq-8">
          <mxGeometry width="50" height="50" relative="1" as="geometry">
            <mxPoint x="400" y="420" as="sourcePoint" />
            <mxPoint x="450" y="370" as="targetPoint" />
          </mxGeometry>
        </mxCell>
        <mxCell id="_rhodisF1wV4W3reyhHq-16" value="" style="endArrow=classic;html=1;rounded=0;exitX=1;exitY=0;exitDx=0;exitDy=0;entryX=0;entryY=0;entryDx=0;entryDy=0;" edge="1" parent="1" source="_rhodisF1wV4W3reyhHq-5" target="_rhodisF1wV4W3reyhHq-8">
          <mxGeometry width="50" height="50" relative="1" as="geometry">
            <mxPoint x="400" y="420" as="sourcePoint" />
            <mxPoint x="450" y="370" as="targetPoint" />
          </mxGeometry>
        </mxCell>
        <mxCell id="_rhodisF1wV4W3reyhHq-17" value="" style="endArrow=classic;html=1;rounded=0;exitX=1;exitY=1;exitDx=0;exitDy=0;entryX=0;entryY=1;entryDx=0;entryDy=0;" edge="1" parent="1" source="_rhodisF1wV4W3reyhHq-5" target="_rhodisF1wV4W3reyhHq-8">
          <mxGeometry width="50" height="50" relative="1" as="geometry">
            <mxPoint x="400" y="420" as="sourcePoint" />
            <mxPoint x="450" y="370" as="targetPoint" />
          </mxGeometry>
        </mxCell>
        <mxCell id="_rhodisF1wV4W3reyhHq-18" value="" style="endArrow=none;html=1;rounded=0;entryX=0.025;entryY=0.198;entryDx=0;entryDy=0;entryPerimeter=0;exitX=1;exitY=0;exitDx=0;exitDy=0;dashed=1;" edge="1" parent="1" source="_rhodisF1wV4W3reyhHq-8" target="_rhodisF1wV4W3reyhHq-13">
          <mxGeometry width="50" height="50" relative="1" as="geometry">
            <mxPoint x="400" y="420" as="sourcePoint" />
            <mxPoint x="450" y="370" as="targetPoint" />
          </mxGeometry>
        </mxCell>
        <mxCell id="_rhodisF1wV4W3reyhHq-19" value="" style="endArrow=none;html=1;rounded=0;entryX=0;entryY=1;entryDx=0;entryDy=0;exitX=1;exitY=1;exitDx=0;exitDy=0;dashed=1;" edge="1" parent="1" source="_rhodisF1wV4W3reyhHq-8" target="_rhodisF1wV4W3reyhHq-11">
          <mxGeometry width="50" height="50" relative="1" as="geometry">
            <mxPoint x="400" y="420" as="sourcePoint" />
            <mxPoint x="450" y="370" as="targetPoint" />
          </mxGeometry>
        </mxCell>
        <mxCell id="_rhodisF1wV4W3reyhHq-20" value="" style="endArrow=classic;startArrow=classic;html=1;rounded=0;" edge="1" parent="1">
          <mxGeometry width="50" height="50" relative="1" as="geometry">
            <mxPoint x="490" y="360" as="sourcePoint" />
            <mxPoint x="640" y="360" as="targetPoint" />
          </mxGeometry>
        </mxCell>
        <mxCell id="_rhodisF1wV4W3reyhHq-21" value="I/O managed by kernel" style="text;html=1;align=center;verticalAlign=middle;whiteSpace=wrap;rounded=0;" vertex="1" parent="1">
          <mxGeometry x="510" y="320" width="120" height="30" as="geometry" />
        </mxCell>
      </root>
    </mxGraphModel>
  </diagram>
</mxfile>
